<?xml version="1.0" encoding="UTF-8" standalone="no"?><!DOCTYPE svg PUBLIC "-//W3C//DTD SVG 1.1//EN" "http://www.w3.org/Graphics/SVG/1.1/DTD/svg11.dtd"><svg width="100%" height="100%" viewBox="0 0 342 208" version="1.1" xmlns="http://www.w3.org/2000/svg" xmlns:xlink="http://www.w3.org/1999/xlink" xml:space="preserve" xmlns:serif="http://www.serif.com/" style="fill-rule:evenodd;clip-rule:evenodd;stroke-linejoin:round;stroke-miterlimit:2;"><g><g id="logo-face" serif:id="logo face"><path d="M106.902,137.225c-3.087,-5.514 -5.464,-11.477 -7.008,-17.766l-2.836,-0c-6.498,-0 -11.774,-5.276 -11.774,-11.775l-0,-13.405c-0,-6.499 5.276,-11.775 11.774,-11.775l3.584,0c8.62,-29.792 36.12,-51.602 68.674,-51.602c32.555,0 60.055,21.81 68.675,51.602l3.951,0c6.498,0 11.774,5.276 11.774,11.775l0,13.405c0,6.499 -5.276,11.775 -11.774,11.775l-3.203,-0c-1.555,6.334 -3.956,12.338 -7.075,17.885c-4.39,1.199 -9.16,2.311 -14.237,3.298c5.427,-6.813 9.439,-14.802 11.587,-23.522c1.164,-4.722 1.782,-9.659 1.782,-14.739c-0,-5.912 -0.837,-11.631 -2.398,-17.045c-7.397,-25.65 -31.063,-44.434 -59.082,-44.434c-27.929,0 -51.533,18.664 -59.01,44.189c-1.607,5.486 -2.469,11.288 -2.469,17.29c0,5.161 0.637,10.173 1.837,14.964c2.153,8.596 6.118,16.477 11.464,23.212c-5.082,-0.998 -9.852,-2.122 -14.236,-3.332Z" style="fill:#770dc7;stroke:#770dc7;stroke-width:0.5px;"/><g id="antenna"><path d="M194.426,40.059l13.643,-31.278" style="fill:none;stroke:#770dc7;stroke-width:10px;stroke-linecap:round;stroke-miterlimit:1.5;"/><circle cx="206.306" cy="12.766" r="12.353" style="fill:#770dc7;"/><path d="M206.306,0.413c6.818,0 12.353,5.535 12.353,12.353c-0,6.817 -5.535,12.352 -12.353,12.352c-6.817,0 -12.352,-5.535 -12.352,-12.352c-0,-6.818 5.535,-12.353 12.352,-12.353Zm0,10c-1.298,0 -2.352,1.054 -2.352,2.353c-0,1.298 1.054,2.352 2.352,2.352c1.299,0 2.353,-1.054 2.353,-2.352c-0,-1.299 -1.054,-2.353 -2.353,-2.353Z" style="fill:#770dc7;"/></g></g><g id="logo-face1" serif:id="logo face"><path d="M110.402,141.725c-3.087,-5.514 -5.464,-11.477 -7.008,-17.766l-2.836,-0c-6.498,-0 -11.774,-5.276 -11.774,-11.775l-0,-13.405c-0,-6.499 5.276,-11.775 11.774,-11.775l3.584,0c8.62,-29.792 36.12,-51.602 68.674,-51.602c32.555,0 60.055,21.81 68.675,51.602l3.951,0c6.498,0 11.774,5.276 11.774,11.775l0,13.405c0,6.499 -5.276,11.775 -11.774,11.775l-3.203,-0c-1.555,6.334 -3.956,12.338 -7.075,17.885c-4.39,1.199 -9.16,2.311 -14.237,3.298c5.427,-6.813 9.439,-14.802 11.587,-23.522c1.164,-4.722 1.782,-9.659 1.782,-14.739c-0,-5.912 -0.837,-11.631 -2.398,-17.045c-7.397,-25.65 -31.063,-44.434 -59.082,-44.434c-27.929,0 -51.533,18.664 -59.01,44.189c-1.607,5.486 -2.469,11.288 -2.469,17.29c0,5.161 0.637,10.173 1.837,14.964c2.153,8.596 6.118,16.477 11.464,23.212c-5.082,-0.998 -9.852,-2.122 -14.236,-3.332Z" style="fill:#fb6136;stroke:#fb6136;stroke-width:0.5px;"/><g id="antenna1" serif:id="antenna"><path d="M197.926,44.559l13.643,-31.278" style="fill:none;stroke:#fb6136;stroke-width:10px;stroke-linecap:round;stroke-miterlimit:1.5;"/><circle cx="209.806" cy="17.266" r="12.353" style="fill:#fb6136;"/><path d="M209.806,4.913c6.818,0 12.353,5.535 12.353,12.353c-0,6.817 -5.535,12.352 -12.353,12.352c-6.817,0 -12.352,-5.535 -12.352,-12.352c-0,-6.818 5.535,-12.353 12.352,-12.353Zm0,10c-1.298,0 -2.352,1.054 -2.352,2.353c-0,1.298 1.054,2.352 2.352,2.352c1.299,0 2.353,-1.054 2.353,-2.352c-0,-1.299 -1.054,-2.353 -2.353,-2.353Z" style="fill:#fb6136;"/></g></g><g id="logo-face2" serif:id="logo face"><path d="M108.402,139.725c-3.087,-5.514 -5.464,-11.477 -7.008,-17.766l-2.836,-0c-6.498,-0 -11.774,-5.276 -11.774,-11.775l-0,-13.405c-0,-6.499 5.276,-11.775 11.774,-11.775l3.584,0c8.62,-29.792 36.12,-51.602 68.674,-51.602c32.555,0 60.055,21.81 68.675,51.602l3.951,0c6.498,0 11.774,5.276 11.774,11.775l0,13.405c0,6.499 -5.276,11.775 -11.774,11.775l-3.203,-0c-1.555,6.334 -3.956,12.338 -7.075,17.885c-4.39,1.199 -9.16,2.311 -14.237,3.298c5.427,-6.813 9.439,-14.802 11.587,-23.522c1.164,-4.722 1.782,-9.659 1.782,-14.739c-0,-5.912 -0.837,-11.631 -2.398,-17.045c-7.397,-25.65 -31.063,-44.434 -59.082,-44.434c-27.929,0 -51.533,18.664 -59.01,44.189c-1.607,5.486 -2.469,11.288 -2.469,17.29c0,5.161 0.637,10.173 1.837,14.964c2.153,8.596 6.118,16.477 11.464,23.212c-5.082,-0.998 -9.852,-2.122 -14.236,-3.332Z" style="fill:#feede5;"/><g id="face"><path id="mouth" d="M148.879,121.471c-1.338,0.128 -2.406,0.314 -3.079,0.58c-2.725,1.077 0.658,4.779 2.08,6.058c3.473,3.124 10.39,6.102 22.401,6.102c0.241,-0 0.48,-0.001 0.719,-0.004c0.239,0.003 0.478,0.004 0.719,0.004c12.011,-0 18.928,-2.978 22.401,-6.102c1.422,-1.279 4.805,-4.981 2.08,-6.058c-0.673,-0.266 -1.741,-0.452 -3.079,-0.58l-44.242,0Z" style="fill:#feede5;"/><path id="r_eye" d="M190.196,105.944c-0.857,-0.173 -1.541,-0.425 -1.972,-0.785c-1.746,-1.458 0.421,-6.47 1.332,-8.201c2.225,-4.229 6.656,-8.261 14.35,-8.261c0.154,0 0.308,0.002 0.461,0.005c0.153,-0.003 0.306,-0.005 0.46,-0.005c7.695,0 12.125,4.032 14.35,8.261c0.911,1.731 3.078,6.743 1.332,8.201c-0.43,0.36 -1.115,0.612 -1.971,0.785l-28.342,-0Z" style="fill:#feede5;"/><path id="l_eye" d="M123.462,105.944c-0.856,-0.173 -1.541,-0.425 -1.971,-0.785c-1.746,-1.458 0.421,-6.47 1.332,-8.201c2.225,-4.229 6.655,-8.261 14.35,-8.261c0.154,0 0.307,0.002 0.46,0.005c0.153,-0.003 0.307,-0.005 0.461,-0.005c7.694,0 12.125,4.032 14.35,8.261c0.911,1.731 3.078,6.743 1.332,8.201c-0.431,0.36 -1.115,0.612 -1.972,0.785l-28.342,-0Z" style="fill:#feede5;"/></g><g id="antenna2" serif:id="antenna"><path d="M195.926,42.559l13.643,-31.278" style="fill:none;stroke:#feede5;stroke-width:10px;stroke-linecap:round;stroke-miterlimit:1.5;"/><path d="M207.806,2.913c6.818,0 12.353,5.535 12.353,12.353c-0,6.817 -5.535,12.352 -12.353,12.352c-6.817,0 -12.352,-5.535 -12.352,-12.352c-0,-6.818 5.535,-12.353 12.352,-12.353Zm0,10c-1.298,0 -2.352,1.054 -2.352,2.353c-0,1.298 1.054,2.352 2.352,2.352c1.299,0 2.353,-1.054 2.353,-2.352c-0,-1.299 -1.054,-2.353 -2.353,-2.353Z" style="fill:#feede5;"/></g></g><g transform="matrix(68.2213,0,0,68.2213,339.383,202.541)"></g><text x="-4.043px" y="202.541px" style="font-family:'Lato-Black', 'Lato', sans-serif;font-weight:900;font-size:68.221px;fill:#770dc7;">KINDR<tspan x="212.355px " y="202.541px ">O</tspan>ID</text><g transform="matrix(68.2213,0,0,68.2213,343.383,207.041)"></g><text x="-0.043px" y="207.041px" style="font-family:'Lato-Black', 'Lato', sans-serif;font-weight:900;font-size:68.221px;fill:#fb6136;">KINDR<tspan x="216.355px " y="207.041px ">O</tspan>ID</text><g transform="matrix(68.2213,0,0,68.2213,341.383,205.041)"></g><text x="-2.043px" y="205.041px" style="font-family:'Lato-Black', 'Lato', sans-serif;font-weight:900;font-size:68.221px;fill:#feede5;">KINDR<tspan x="214.355px " y="205.041px ">O</tspan>ID</text></g></svg>