<?xml version="1.0" encoding="UTF-8" standalone="no"?><!DOCTYPE svg PUBLIC "-//W3C//DTD SVG 1.1//EN" "http://www.w3.org/Graphics/SVG/1.1/DTD/svg11.dtd"><svg width="100%" height="100%" viewBox="0 0 1574 865" version="1.1" xmlns="http://www.w3.org/2000/svg" xmlns:xlink="http://www.w3.org/1999/xlink" xml:space="preserve" xmlns:serif="http://www.serif.com/" style="fill-rule:evenodd;clip-rule:evenodd;stroke-linejoin:round;stroke-miterlimit:2;"><g><g id="logo-face" serif:id="logo face"><path d="M441.177,570.049c-12.862,-22.974 -22.769,-47.821 -29.203,-74.027l-11.814,-0c-27.077,-0 -49.06,-21.983 -49.06,-49.06l-0,-55.856c-0,-27.077 21.983,-49.06 49.06,-49.06l14.933,0c35.916,-124.135 150.501,-215.008 286.143,-215.008c135.642,-0 250.227,90.873 286.143,215.008l16.462,0c27.077,0 49.06,21.983 49.06,49.06l0,55.856c0,27.077 -21.983,49.06 -49.06,49.06l-13.344,-0c-6.48,26.395 -16.483,51.412 -29.481,74.523c-18.291,4.997 -38.165,9.63 -59.318,13.742c22.613,-28.387 39.327,-61.677 48.279,-98.008c4.849,-19.677 7.422,-40.247 7.422,-61.412c-0,-24.637 -3.486,-48.466 -9.99,-71.02c-30.822,-106.878 -129.43,-185.143 -246.173,-185.143c-116.371,0 -214.722,77.766 -245.876,184.12c-6.695,22.857 -10.287,47.034 -10.287,72.043c-0,21.502 2.655,42.388 7.654,62.349c8.97,35.815 25.489,68.652 47.765,96.717c-21.174,-4.16 -41.048,-8.841 -59.315,-13.884Z" style="fill:#770dc7;stroke:#770dc7;stroke-width:2.08px;"/><g id="antenna"><path d="M805.857,165.189l56.848,-130.322" style="fill:none;stroke:#770dc7;stroke-width:41.67px;stroke-linecap:round;stroke-miterlimit:1.5;"/><circle cx="855.36" cy="51.469" r="51.469" style="fill:#770dc7;"/><path d="M855.36,-0c28.407,-0 51.469,23.062 51.469,51.469c-0,28.406 -23.062,51.469 -51.469,51.469c-28.406,-0 -51.469,-23.063 -51.469,-51.469c0,-28.407 23.063,-51.469 51.469,-51.469Zm0,41.667c-5.41,-0 -9.802,4.392 -9.802,9.802c0,5.41 4.392,9.802 9.802,9.802c5.41,-0 9.802,-4.392 9.802,-9.802c0,-5.41 -4.392,-9.802 -9.802,-9.802Z" style="fill:#770dc7;"/></g></g><g id="logo-face1" serif:id="logo face"><path d="M455.76,588.799c-12.862,-22.974 -22.768,-47.821 -29.202,-74.027l-11.815,-0c-27.077,-0 -49.06,-21.983 -49.06,-49.06l0,-55.856c0,-27.077 21.983,-49.06 49.06,-49.06l14.933,0c35.916,-124.135 150.501,-215.008 286.143,-215.008c135.642,-0 250.227,90.873 286.143,215.008l16.463,0c27.076,0 49.06,21.983 49.06,49.06l-0,55.856c-0,27.077 -21.984,49.06 -49.06,49.06l-13.344,-0c-6.481,26.395 -16.484,51.412 -29.482,74.523c-18.29,4.997 -38.164,9.63 -59.317,13.742c22.612,-28.387 39.326,-61.677 48.279,-98.008c4.849,-19.677 7.421,-40.247 7.421,-61.412c0,-24.637 -3.485,-48.466 -9.99,-71.02c-30.821,-106.878 -129.429,-185.143 -246.173,-185.143c-116.371,0 -214.722,77.766 -245.876,184.12c-6.695,22.857 -10.287,47.034 -10.287,72.043c0,21.502 2.655,42.388 7.654,62.349c8.971,35.815 25.49,68.652 47.765,96.717c-21.173,-4.16 -41.048,-8.841 -59.315,-13.884Z" style="fill:#fb6136;stroke:#fb6136;stroke-width:2.08px;"/><g id="antenna1" serif:id="antenna"><path d="M820.441,183.939l56.847,-130.322" style="fill:none;stroke:#fb6136;stroke-width:41.67px;stroke-linecap:round;stroke-miterlimit:1.5;"/><circle cx="869.944" cy="70.219" r="51.469" style="fill:#fb6136;"/><path d="M869.944,18.75c28.406,-0 51.468,23.062 51.468,51.469c0,28.406 -23.062,51.469 -51.468,51.469c-28.407,-0 -51.469,-23.063 -51.469,-51.469c-0,-28.407 23.062,-51.469 51.469,-51.469Zm-0,41.667c-5.41,-0 -9.803,4.392 -9.803,9.802c0,5.41 4.393,9.802 9.803,9.802c5.409,-0 9.802,-4.392 9.802,-9.802c-0,-5.41 -4.393,-9.802 -9.802,-9.802Z" style="fill:#fb6136;"/></g></g><g id="logo-face2" serif:id="logo face"><path d="M447.427,580.465c-12.862,-22.973 -22.769,-47.821 -29.203,-74.027l-11.814,0c-27.077,0 -49.06,-21.983 -49.06,-49.06l-0,-55.855c-0,-27.077 21.983,-49.06 49.06,-49.06l14.933,-0c35.916,-124.135 150.501,-215.009 286.143,-215.009c135.642,0 250.227,90.874 286.143,215.009l16.462,-0c27.077,-0 49.06,21.983 49.06,49.06l0,55.855c0,27.077 -21.983,49.06 -49.06,49.06l-13.344,0c-6.48,26.395 -16.483,51.412 -29.481,74.524c-18.291,4.997 -38.165,9.63 -59.318,13.742c22.613,-28.387 39.327,-61.678 48.279,-98.009c4.849,-19.677 7.422,-40.246 7.422,-61.411c-0,-24.637 -3.486,-48.466 -9.99,-71.021c-30.822,-106.878 -129.43,-185.142 -246.173,-185.142c-116.371,-0 -214.722,77.766 -245.876,184.12c-6.695,22.857 -10.287,47.034 -10.287,72.043c-0,21.501 2.655,42.387 7.654,62.348c8.97,35.816 25.489,68.653 47.765,96.718c-21.174,-4.16 -41.048,-8.841 -59.315,-13.885Z" style="fill:#161616;stroke:#161616;stroke-width:2.08px;"/><g id="face"><path id="mouth" d="M616.078,504.407c-5.572,0.532 -10.024,1.308 -12.826,2.415c-11.355,4.489 2.74,19.916 8.664,25.244c14.472,13.014 43.291,25.423 93.341,25.423c1.002,0 2,-0.004 2.994,-0.014c0.994,0.01 1.992,0.014 2.993,0.014c50.05,0 78.869,-12.409 93.341,-25.423c5.924,-5.328 20.019,-20.755 8.664,-25.244c-2.802,-1.107 -7.254,-1.883 -12.826,-2.415l-184.345,0Z" style="fill:#161616;"/><path d="M616.078,504.407l184.345,0c5.572,0.532 10.024,1.308 12.826,2.415c11.355,4.489 -2.74,19.916 -8.664,25.244c-14.472,13.014 -43.291,25.423 -93.341,25.423c-1.001,0 -1.999,-0.004 -2.993,-0.014c-0.994,0.01 -1.992,0.014 -2.994,0.014c-50.05,0 -78.869,-12.409 -93.341,-25.423c-5.924,-5.328 -20.019,-20.755 -8.664,-25.244c2.802,-1.107 7.254,-1.883 12.826,-2.415Z" style="fill:#161616;"/><path id="r_eye" d="M788.233,439.711c-3.569,-0.72 -6.421,-1.77 -8.216,-3.27c-7.274,-6.076 1.755,-26.961 5.55,-34.173c9.271,-17.619 27.732,-34.418 59.794,-34.418c0.641,-0 1.281,0.006 1.917,0.019c0.637,-0.013 1.277,-0.019 1.918,-0.019c32.062,-0 50.523,16.799 59.794,34.418c3.795,7.212 12.824,28.097 5.55,34.173c-1.795,1.5 -4.647,2.55 -8.217,3.27l-118.09,-0Z" style="fill:#161616;"/><path d="M788.233,439.711c-3.569,-0.72 -6.421,-1.77 -8.216,-3.27c-7.274,-6.076 1.755,-26.961 5.55,-34.173c9.271,-17.619 27.732,-34.418 59.794,-34.418c0.641,-0 1.281,0.006 1.917,0.019c0.637,-0.013 1.277,-0.019 1.918,-0.019c32.062,-0 50.523,16.799 59.794,34.418c3.795,7.212 12.824,28.097 5.55,34.173c-1.795,1.5 -4.647,2.55 -8.217,3.27l-118.09,-0Z" style="fill:#161616;"/><path id="l_eye" d="M510.178,439.711c-3.57,-0.72 -6.422,-1.77 -8.217,-3.27c-7.274,-6.076 1.755,-26.961 5.55,-34.173c9.271,-17.619 27.732,-34.418 59.794,-34.418c0.642,-0 1.281,0.006 1.918,0.019c0.636,-0.013 1.276,-0.019 1.917,-0.019c32.062,-0 50.523,16.799 59.794,34.418c3.795,7.212 12.824,28.097 5.55,34.173c-1.795,1.5 -4.647,2.55 -8.216,3.27l-118.09,-0Z" style="fill:#161616;"/><path d="M510.178,439.711c-3.57,-0.72 -6.422,-1.77 -8.217,-3.27c-7.274,-6.076 1.755,-26.961 5.55,-34.173c9.271,-17.619 27.732,-34.418 59.794,-34.418c0.642,-0 1.281,0.006 1.918,0.019c0.636,-0.013 1.276,-0.019 1.917,-0.019c32.062,-0 50.523,16.799 59.794,34.418c3.795,7.212 12.824,28.097 5.55,34.173c-1.795,1.5 -4.647,2.55 -8.216,3.27l-118.09,-0Z" style="fill:#161616;"/></g><g id="antenna2" serif:id="antenna"><path d="M812.107,175.605l56.848,-130.321" style="fill:none;stroke:#161616;stroke-width:41.67px;stroke-linecap:round;stroke-miterlimit:1.5;"/><circle cx="861.61" cy="61.885" r="51.469" style="fill:#161616;"/><path d="M861.61,10.417c28.407,-0 51.469,23.062 51.469,51.468c-0,28.407 -23.062,51.469 -51.469,51.469c-28.406,0 -51.469,-23.062 -51.469,-51.469c0,-28.406 23.063,-51.468 51.469,-51.468Zm0,41.666c-5.41,0 -9.802,4.393 -9.802,9.802c0,5.41 4.392,9.803 9.802,9.803c5.41,-0 9.802,-4.393 9.802,-9.803c0,-5.409 -4.392,-9.802 -9.802,-9.802Z" style="fill:#161616;"/></g></g><g transform="matrix(284.256,0,0,284.256,1568.96,842.198)"></g><text x="-21.097px" y="842.198px" style="font-family:'Arial-Black', 'Arial', sans-serif;font-weight:900;font-size:284.256px;fill:#770dc7;">KINDR<tspan x="1000.45px 1237.23px " y="842.198px 842.198px ">OI</tspan>D</text><g transform="matrix(284.256,0,0,284.256,1585.62,860.948)"></g><text x="-4.43px" y="860.948px" style="font-family:'Arial-Black', 'Arial', sans-serif;font-weight:900;font-size:284.256px;fill:#fb6136;">KINDR<tspan x="1017.11px 1253.9px " y="860.948px 860.948px ">OI</tspan>D</text><g transform="matrix(284.256,0,0,284.256,1577.29,852.615)"></g><text x="-12.764px" y="852.615px" style="font-family:'Arial-Black', 'Arial', sans-serif;font-weight:900;font-size:284.256px;fill:#161616;">KINDR<tspan x="1008.78px 1245.57px " y="852.615px 852.615px ">OI</tspan>D</text></g></svg>